<svg width="1235" height="799" fill="none" xmlns="http://www.w3.org/2000/svg"><mask id="b" style="mask-type:alpha" maskUnits="userSpaceOnUse" x="0" y="0" width="1254" height="799"><path fill="url(#a)" d="M0 0h1254v799H0z"/></mask><g mask="url(#b)"><path stroke="#E3EAED" d="M33.5 5v2129M173.5 5v2129M313.5 5v2129M453.5 5v2129M593.5 5v2129M733.5 5v2129M873.5 5v2129M1013.5 5v2129M1153.5 5v2129M1255 36.5H-185M1255 182.5H-185M1255 329.5H-185M1255 475.5H-185M1255 622.5H-185M1255 769.5H-185"/><path fill="#F1F7F9" d="M312 184h141v147H312z"/><path fill="#E3EAED" d="M872 622h141v147H872zM874 37h141v147H874z"/></g><defs><radialGradient id="a" cx="0" cy="0" r="1" gradientUnits="userSpaceOnUse" gradientTransform="rotate(179.505 312.637 201.104) scale(627.024 399.508)"><stop stop-color="#F7FBFC" stop-opacity=".64"/><stop offset="1" stop-color="#F7FBFC" stop-opacity=".2"/></radialGradient></defs></svg>